<svg width="47" height="27" viewBox="0 0 47 27" fill="none" xmlns="http://www.w3.org/2000/svg">
<path d="M43.0082 3.04354C41.228 1.26378 38.8587 0.196039 36.3461 0.0412702C33.8336 -0.113499 31.3511 0.655371 29.3659 2.20319C27.5531 0.794787 25.3229 0.030045 23.0272 0.0296001C20.7316 0.0291553 18.5012 0.793035 16.6878 2.20073C14.6197 0.577949 12.0102 -0.194288 9.39205 0.0416755C6.77389 0.277638 4.34452 1.50401 2.59989 3.47041C0.855263 5.43682 -0.0730405 7.99496 0.00449337 10.6226C0.0820273 13.2502 1.15955 15.7493 3.01709 17.6093L9.36081 23.9539C9.36572 23.9587 9.37063 23.9633 9.37616 23.9682C9.38169 23.9731 9.38323 23.9754 9.38676 23.979C9.39336 23.9856 9.40042 23.9916 9.40702 23.9982C9.50786 24.098 9.61021 24.1952 9.71412 24.2899C9.76755 24.3389 9.8216 24.3863 9.87595 24.4341C9.92006 24.4725 9.96439 24.5105 10.0089 24.5482C11.8173 26.0804 14.0978 26.9438 16.4675 26.9929C18.8373 27.0422 21.1517 26.2745 23.0222 24.8186C25.0074 26.3663 27.4899 27.1352 30.0023 26.9805C32.515 26.8257 34.8843 25.7579 36.6645 23.9782L43.0084 17.6345C44.9404 15.6981 46.0254 13.0744 46.0254 10.339C46.0254 7.60359 44.9403 4.97991 43.0082 3.04354ZM23.0253 2.7168C24.5335 2.71583 26.0082 3.16235 27.2625 3.99983C28.5169 4.83732 29.4946 6.0281 30.0719 7.4215C30.6492 8.81489 30.8002 10.3482 30.5057 11.8274C30.2112 13.3067 29.4844 14.6653 28.4175 15.7313L23.0253 21.1233L17.6329 15.7313C16.5659 14.6653 15.8392 13.3067 15.5447 11.8274C15.2502 10.3482 15.4011 8.81483 15.9785 7.42143C16.5558 6.02803 17.5336 4.83724 18.7879 3.99977C20.0423 3.16231 21.517 2.7158 23.0253 2.7168ZM9.05541 16.683C9.05266 15.6811 9.24867 14.6887 9.63208 13.7631C10.0155 12.8375 10.5787 11.9972 11.289 11.2908L12.7242 9.85557C12.6547 11.2901 12.8862 12.7233 13.4039 14.063C13.9215 15.4027 14.7137 16.6192 15.7297 17.6345L21.0117 22.9164C19.8724 23.7144 18.5359 24.1844 17.1479 24.275C15.76 24.3656 14.3736 24.0735 13.1403 23.4305C11.9069 22.7873 10.8737 21.8181 10.1533 20.6281C9.43299 19.4383 9.0531 18.0735 9.0551 16.6825L9.05541 16.683ZM4.91997 15.7059C3.57024 14.3565 2.77565 12.55 2.69319 10.6432C2.61072 8.73638 3.24635 6.86797 4.47452 5.40706C5.7027 3.94614 7.43412 2.99895 9.32674 2.75259C11.2194 2.50622 13.1356 2.97862 14.6968 4.07644L9.38583 9.38741C8.42478 10.3432 7.66286 11.4802 7.14417 12.7325C6.62549 13.9848 6.36033 15.3275 6.36407 16.683C6.36407 16.843 6.3678 17.0023 6.37528 17.1613L4.91997 15.7059ZM29.3694 24.3085C27.8114 24.3122 26.2902 23.8349 25.0135 22.9419L30.3214 17.6345C31.3374 16.6192 32.1296 15.4027 32.6472 14.063C33.1648 12.7233 33.3963 11.2901 33.3269 9.85557L34.7621 11.2908C35.8286 12.3573 36.5547 13.7161 36.8489 15.1953C37.1433 16.6745 36.9922 18.2078 36.4149 19.6012C35.8377 20.9947 34.8602 22.1856 33.6062 23.0235C32.352 23.8613 30.8777 24.3085 29.3694 24.3085ZM41.1054 15.7313L39.6754 17.1613C39.6826 17.0025 39.6863 16.8431 39.6866 16.683C39.6903 15.3275 39.4251 13.9848 38.9064 12.7325C38.3878 11.4802 37.6257 10.3432 36.6647 9.38741L31.3574 4.07997C32.9214 2.99161 34.8363 2.52824 36.7249 2.78108C38.6135 3.03391 40.339 3.98465 41.5617 5.44608C42.7844 6.9075 43.4156 8.77372 43.3311 10.6773C43.2467 12.5809 42.4527 14.3839 41.1054 15.7313Z" fill="white"/>
</svg>
